<mxfile host="app.diagrams.net" modified="2020-05-17T06:33:41.156Z" agent="5.0 (Macintosh; Intel Mac OS X 10_13_6) AppleWebKit/605.1.15 (KHTML, like Gecko) Version/11.1.2 Safari/605.1.15" etag="aZsbCl7ynq6jSNAZag50" version="13.1.2" type="github">
  <diagram id="VTaD30tysaFFfyeTCVzB" name="Page-1">
    <mxGraphModel dx="897" dy="664" grid="1" gridSize="10" guides="1" tooltips="1" connect="1" arrows="1" fold="1" page="1" pageScale="1" pageWidth="827" pageHeight="1169" math="0" shadow="0">
      <root>
        <mxCell id="0" />
        <mxCell id="1" parent="0" />
        <mxCell id="BDd5DvJuGUX4FxwwKFX6-3" style="edgeStyle=orthogonalEdgeStyle;rounded=0;orthogonalLoop=1;jettySize=auto;html=1;" edge="1" parent="1" source="BDd5DvJuGUX4FxwwKFX6-1" target="BDd5DvJuGUX4FxwwKFX6-2">
          <mxGeometry relative="1" as="geometry" />
        </mxCell>
        <mxCell id="BDd5DvJuGUX4FxwwKFX6-1" value="" style="verticalLabelPosition=bottom;html=1;verticalAlign=top;align=center;strokeColor=none;fillColor=#00BEF2;shape=mxgraph.azure.user;" vertex="1" parent="1">
          <mxGeometry x="50" y="510" width="47.5" height="50" as="geometry" />
        </mxCell>
        <mxCell id="BDd5DvJuGUX4FxwwKFX6-2" value="" style="shape=image;verticalLabelPosition=bottom;labelBackgroundColor=#ffffff;verticalAlign=top;aspect=fixed;imageAspect=0;image=data:image/png,iVBORw0KGgoAAAANSUhEUgAAAKIAAADECAYAAAAcX/pcAAAAAXNSR0IArs4c6QAAQABJREFUeAHtvQd8Hdd1538eQKIThWCvYC8SKYnqklUsW3KRe8mmOXbiFKdt6n8TJ9lN2yT+bNo/mzjFjtfx2rEdO+5yXGL1RjWSokSxk2ADCRJE7wDx9vc9M3cwD4UESJAiKFwSb9qdW8+ce/o1m0pTIzA1AlMjMDUCUyMwNQJTIzA1AlMjMDUCUyMwNQJTIzA1AlMjMDUCUyMwNQJTIzA1AlMjMDUCUyMwNQJTIzA1AlMjMDUCUyMwvhHIjC/75Zm7v68v29XRZR1tHdapY0jZgYFwOumPs+bPtrLyMsvPz78i5mzohEzqTh3YdSD78LcetG1PbLOmxibr7e2zM2fODO3jFXFdOL3AyqvK7a633233vec+q547a1LP3dBJmTb0xmS47ursyr64eZv93X//Gzt6uM4aT5627s4uAWGMATOpOcpmoy6l702GTo7QxsLCAmttarXdL+6xZx99Nrvp9k02bdq0VGdHeGmS3JqUnXjgX7+Z/fzffd4OHzgUAV8MZPl5GZs2fXoy9APCjnn5+cn1ZDyhDwMiMfgLScBni2oW2+/9/X+3NRvXXhHL9aQCxDNn+rLf/fL37Guf+qrt27nPenp6zcB4MSDOnl1tM+dWh/m6Io79/f3W1tJmLY0t1tPdE/VJ/S0tKxEwLrKP/Peft1vuuXVSzeNIEzOplubmhhYHwqO1R5NJmTl7ps1fNN8WrVhiC5bOt4rqipH6eVney8vkebsGsoPYbmhD+/v6nexoqDttRw8csb2v7LX21jbraO+02r219sDnvmWn6xuyk51mnDSAmB3IZp95ZHOECYUZAsm3fPVyu+mNN9u977rXKmdVWUFhYTSXmcHJzVg04UMn+dW+zgb69SwNyaijULknj54w6OIvf+LLVruv1iUEYMgDOw/Yt7/wAEt3Ni9PtMkkTZfnDI0wmI2nTttDX33QoJlIpcUlVrNymd325tvtrrfeLY6yQvThaN/VIFCOUPRlfwvoqqiutHWbrrJ3fehdtvGGDcmHeOpYvT327cesTxKDyZxGm7nLrk/1dfV2/MjxpF0llWW2+pq1tmL9Slu0bGF8X1MGlunXpHRJntjZaZnLeILGg76K1MM5/b1247L5tn3ubCvKn2bdZ/qtXf08VX/KOts7krGZjCeTBhBP1Z1yWaFzj1quZlTMEIZYa3Mk6M1axv/lAOFxAe2JejPJF6+UBNExR38b+9vsGa1lvdk8OzOQ1XfXLxFW46Tu5qQBxJxRFtZDhFGp5Xh6QUEEhMqQ7eywTF2dZZ7fYtlDh8zgqnu6c16d7BfZwiIrOrjfKgumWVt3v0l66l3q6Yk56knawUkDiANOsueOclFJcUQXaokStW6Zo0cts2WbZbdssUxzs9kZyPzLWdOSXpxp69lS/FyHnv7hfYJGhKHL5AU27mxlXX7PJg2zctahQ9grWsmB8LHHLNPYIPgTcBpMCpOdnvCzlvQqPgztPMtRK4EAzdtYND2eupjz3rN9z6vY9guvetJgxLwRgCnBkm1tZi+9bNm645aRAHgQeZ4Ly1z4AF5YCeNpnwAwKy1RSsMyrO4IRofdngw3Jg0gnnUwe3sts/+gZU+IQXFMGOcebZ5HmrB03vA8fY8iw/1hjUlnHCHTsMfpGyosO/Sd9PP4WXJrSN70SpzkGdbAy/7GpAHEBPulhjQTL0uIaLInxSG3tzuwiFZKcsFPjzkNKG/e4LvGdUicJpepPOH5hB6paEgdmSHXcX2RuHtCK39VCps0gJizNMdYIBOryLIDZyzT2ir5IUzL4DiilUhSMo/JiR7pebj098JFfBwvBR1eT1U7WAEgEwma4u/Hmzb6h6JCKCeUSe6ccv31K+Zn0gDi2UY8I/OvbJ+E2BJku0QxYLK04U16EtOTS8EBeB3wUg/T75ytAWkIoe78UAYFAH4kAaGXFwGj3/J6dRMs7M/8bvwTvWsJJhyWIZ150p9fEYDosyDVX2ZAkORLa5i0GCByUVA0aeQlATQJwMb5h0NFlHcsv9RPMQ51AsJQ5IjvxsA24rPX1s1JCYiBLsqhG7E7BHswtwlGiiczPd8OGBnrF7Qc6pDRQGuP9cn6pUereqFGY01Fsc0tLrAyN2sMAD1GoAjZwYqqJ6v2NHSfsaMdvVbbJuG6EnXMLpxuqyqKrKIAgiNuXNyuhC71D8pvRpWHsqOrK+53UgLiqFhmNJouxk6OqaQWy8oy53hXn+1u6bKH69qsLSUgvnPuGbt5TpmV5UmhxnsOEOeY9wRedALA6I8FuUPATR0vnu60505FuuDZxdNtdtE0myZ54CoBfdm0+B3KyOGedcPvBSx/jjZM8seTEhDHPeZMMJMKeAgIAZDnT3XaUyfbbEtTV2LRgzV3d1+LNQk9/uLaucovIMDaxwEyep/f0RNQ6NDjddR39dpDx1XHqXZr0m1g7lhvp03vNKsWaizMz7P1lZgz6EEMwAbJEOwT9dF44tkVniY1IOZw0medKICDFADFbG9rlx1t77Gu2KwsMpjotyNSTc9u77W67j6bWZi1IjhzXpe6MCvsOAwmANLAUJDPsZoMESR4bpQuuK6z107JKAEsHhlqqdU62dXSbfNLp9u6ykKVGUpVpgyAH7c13PYbFH7lpviTm1wd9JX2PJvMpAMk3ZI11vUHdlmFxYV2IQJSau49Y/3MfSwi8pvxD7eHgUWgF9B+qI4+ld9DPX1QsglERSUIqE+JNDjeEYFmxNHEpQY6l1eYnUk5Q1E3x/P7GummhsQxl2Y31eMqJhsACkCUGrkFJdOtKMfgeRBvIZ90GWX6i/BzChRwCytO17uFeXFlQ8uXazK64uJpmHHxzlRKTcuVPhgxxtGhSLTZDbNKnFkodKCK+67z1WVFtlYcbdm0fJvmwCXAAlacaeFkCOB4sbqXMBoMaZ7XMVNMyXKVNUcmWyFRX8n0AdtQWaxlWdZDvqyPUK6/ELd5OP4NxV0xx8ERmoRdyhHfnKv9zGmcALBrZ5a6yIYlsrk3Wo57p8sCenap3Tp3hgMI4pcc7UwoYOgxAUIeRMt9kbAhYqANlSXWpmXexD2TivURVBQV23WzSh0QE7j29gkgh8C5v/Qa+JnUgDh2ZiU1k1oK6fRMca03zym1RWIYTvVEtFqhsGBNaYEDEBAxKkykgFqoUFm5kcoNYOpWmZbn180rs5oZBRIX9Trglxfl2/yi6cbSX5gI0lPte42eTmpAHNecObAAL4IQiUUEDza/ZJoDZFvfGZnPikMWFvMlORAsKdgaf116Wf9nq6IZ04udQ8aCC9oROaKn8y1/XI2ZHJlfO4DoGAs5ouAjBkpIQACyKBNHhwgamZi54DC4NIP14sSLgclwhoZn8fNwUB1kc3pRgD2vQHVAZ/Kcd8ciKOf110h6DQFiBCEOG0CDQwnKQqGpPLkZpJfWePIdXiH5yOtYMirDzkSlSLnNw1xQiaDPy8u6YFp5lMV9q/0roO64nNw3X9NXryFATM8zwBMBUDAlc1Q1VMwSA6u/6bCTAjqAMHU5mCeuJ8GIXCtjyOvlBEAMN+N3XsOH1w4gBs7Wj0JvYCswk8NCDBAceB4wV8CCbmjL/Zi7yIPL5t34PYer+DwAk5efvheALxxDxqkjI/DaAUR6GwAJNVpIDhcxcABYAWB5nrL0xohBDjGCXaBT+QIQhnLCEdjz4gB2TmJgjA8wSr7Op9sQ3n0NH/2bf231H7oOAHFoGey6bmOEg1GE04MOlHG2NNCBRR1YgSz9BaaFkgKwcR7naZeesBu31nSVMSyTbSpFI/AaAkRBgjCaMxgxDCWAI6BhsUX/HKncYmAFmGIMCDMTwRnl6DnYDsTqAKYl2wEvBisyamRRZTdJRol4KDcNvc59+lq8em0szQBLSI7dgJQYmAAvx3IAzoA909BlLTJ8mC+tCNYxlQrsVARcAlkuqvGLCBC5nREQ+uecZ916D6DDEBYBNkYNM2UEi0B7luREDspxXbwaQ7afvtZ/XhuA6LMc4bPcCdc9YTJfjgUV6KABwoOy2uZvQUmhzS7Ot1JpXLAdLJSxQoED42ApvVjZaOntEAB2ynemURbZdZ09VitTMtJ11bwX64ASIBypLYNlvhbPXkOAmJ7eGKvFtxBaC9a01GZsQ1WJq+I+s/ek9QqwCgRE86T2m4H6r6zAgRWrmZDAfqdkdxjZNsrotmfA+iWsXlpaaOurit3am/No6c6tN5QxdZykXPMw+75kJtOYJrUep2973tSNgKV0K18AVKWldI2spt++pMqeO91h+xu77fCZbvmXTHNgA7ulU4+AtUVGE13CjFkBckbaGQAP44nbZDyB4cM016iogjTTky5kLOdOi6baPcI7ztmPcH8y3LqyMGIa4eTCy8hzMWRewYw4TS2fUSj9cFQAhq0nRe+dkMV2f9/gVOe8qvcGxMBUTM+3OcUREN40u0wWNsVRvWlGZuSWnPMuNWfkbpiF4RolBXZqlMeX9e1JCYgjevExzC6bS4MI5+E6hSHPMSVYxcCsvGVxpS0pK7SvHGq0E1qCT0u+Q2mEHA6lDeqizZaUF9mN1aV294Jyx4rkywTxTmjGOeoe7XHE6EiOmcrQn75I3Z+Mp5MSEMNADzMDQ2DNUjsIJnHWADbhzbMfA82IqdhVovMK8qttn3xMjsl2ER+UFtGEIVXIkibQj8vKC0VHFtnCEi3HYmxsAMIzRtMpEiC8O64jQAdmDYCtS5yxhKSTNPh5JLcmzcmkBMRRacQJAEKfuXhyi7SXzoJpBbZA2JHl+kBbjx0TZsTLryP2d8EbD6y5VnTlbNkZFgGAvA/8+erOjy4CwHAEqCYghXjioaippTmMxCU6hqU5sm5JV5omEnU/XDLx5zX5egng1oGlGkbmmpkD7hiF/SKSQVKxOGr8W2B2PCU0IZgzJlbJGoAxyjXOX9qiImQpFJJvZhQ7e63euDrcnpTHSYcRtYWD78LERjjsNZJsgsPwp7hSFB/RZQRIPovjmSKAKQCPjoh3sLhOxScRVOgaOKMyT7omS06KAcf9leMHwe4xJ9+5LqI6IBuISgHNCo0YulxYJLfUSRotlp7Hn+u5BuHVf14obrSoqMiBkKWZDSBPaJeBnGj6jomAhBgagIFhgDH2voBxk71QHNhigKPcBDFxL/2nSzAjfw58OvJuAqxjrz83pyhAldEuorBRasMOEyDG2JBtPUrKSnOzT7KrSQOIC5YutOo51QZGJLVqSzB2JT2ujXCSlCyJwF8KIJMM4zjRpFNG4IoFSvHKqjOaAB/iy6SuQUv4PwcfaK5hKniJduga5/xQAnfHnzIePWLb6XZnmjr6aIAwtYLal5aWWtXsqvEXeRm9MWmW5gKZ2hfPGPzqwYQH9hywrY8/bzMUpHNVe5eVCHiSDvmyCRYBDgQM4005nyjvO1RFpVC2F5m6l5Qf1xVeASsKCL0J59OOuNxTXf2KTtFtT9W3285GxSzxjiWVWm/X1K4Cg6NxEc/YHrZLG4OH1CeZXuOpRtv88LPWtWuf5fU3W3mB9MKxIBpGAobiQlJgRsZbDk5SIO7QhnC8kLbsaO62F06229aGDjuK+ytYNi6wp6/Xdm7dKTKlM1tSVhJ/CRdS26V/97JvdFtza/brn/26PfmdJ+zovsPavyd3Ax9oIwj1WV2dHj3h0g/hpakRDQ/+1y0yrugVCLoIC/JBM8j+g9XzZtnKNSvszT/6VrvjTXdMun2ck5Xs0gzn2GvRTvTZI/sP2xf+4Qv2g6//wDcHz2FM4qI6hCX5a4o/qYiyi5Zkz6KZGsQdY6vfJznOOtq76Twsk5lgzS05oj9j6QxpyJIcykxnidZuVvxU23l/yLt+Sz/sQsViTBlIDupqj1lHS7ud1ibqnRqP5tPN2crqysse0dAf0mXZ0N6+3uyO5162f/qf/2i7tu+K9mWO2mvTJUcpEAYMqVeTELjHnIkNGTiOMJnpxxd8PkrFVJs8yrk4S43KlwOocdvDPZi1GXodqyCsg3rEIPWKu2crNBKbp1fMrLQ733yX/dIf/5L2dS67LOfYG5v6uewaKZFM9ttffMAe/ubDdkIccXenNvmKB7mistw3y77pnpttoTaCPKmdOV/avN327z7AnsVJvrFgldQYTOxpAnkjF3tOeIwBj7cD8HHOJpBzRP8uQoujeDor9dcrO8itshCCbmyQhRCcNO/ASVdpH+sly5bYT//Oz9hV11992S/Vl83SrO2GsyePnbDPf/xzzoAc0SbZJL5wsOCSlUutZlWNXXXj1XbdbdfZ3IVzjY0iZ8+bbYteWuQMy5mTpyzbMcjQeAFXyA+aG9SJWI2jz0blSNi8WdJ1c39XS6HtVXydk6IhYeROHj/lH+dn/uLT9p4Pv++yZ2QuG4y4/5V92d//uf9h9YeO+9avARtAiJeVlNj9H3iH3fGWO2zttesSWaLDmJZm00Y/maef0e5TL5mxKykyvOB3nPQwObkIoBnTg4h1qDs/SLupM36G8DG4qkQiQC3bLKkp1WDcMleZ+6uxDMnVjJQdZcCiPEGcOmnvzdpjJ1o8DPPmxo5E6B86umDpArv9jbfaR37vFyX4vjy56ssCIz7/2PPZj//+30ZLMbuJanlj+ipmVds1119l97zrHlu6usbmLZovtxEmB4Jek4HhwYvbLLP1RbPDhy0rjpr5i8J5+BlXFz8FAKQmByBar5OkCfGJC7X1SP1rlwSG0MYEkz8lW0cSRhOJ8YQMLjwKhe5DNTpAx8X4tVehH9VdpCEhuhk7lrJsP36izQPVw12TTp9okNThSZul1aOpoTFbNWtm0jLPcBn8vKqAqL2Xs4f3HbK//P/+wva+sjdR14EBy+dU2bqNa+3W+26z2970Olfv5ctE36dEoYAz2n8ve/iI5e3YZdlXdlpG4hvfh49BDcMctBsBAC7VgAOYJEdt0WmkdTnjKjoAsFa64tqUaRm5MCcDKFfJrnGdXBZyDCnIEMqjfK8DQBNNKAeuBSVZyVGnySI8iuNTdDrP9monAyx0nKs+dty++2/ftW4Jvi9HYAxTRjcvedqzfXf2j37xDx0TYsBAAg/Mlzrvpjtusvt/7H7tUr/G6URCg0SYQUPfqE2y9+41e/hRMzaCbNeuU0qJXphy3A3Ub0cTeDF7GiGeqDIABLKAlNwXysLFQDtk7Zcp2SN1rY619reIrIiZG7en0CsF4oqvVbi8j6yb424GZY4q4sYPA0SvJVWPPBFVKW6xLNVf2t+omOByY4h10qznMHzzFs2zP/n0n9nCmoUXc1Tixo3t8KphxK1Pbcn+4x//vQMhIhgmZLqU9+uvu8quufVapwcXLVssbi8QVMrC7lLsRPrsc2Y7dkZA2D24MXhCN4ESL+UQp+tyYNENR1bRA4CjvbvXt7iAy31FOxngfsCHgw46T5g7iCExdMUR67tHmt3nxd0NHFgpM66Io+vcY6IzVdc0PWOpxgnMVmj3hIZOVwkeipd/ZLFIIz75sU9a7Z6D2ZrVy+JCxwYwFyvXJQdEuOPD+2pzlmPGuUK70S+qWWQ3vv5Gu+HOG239pquiPvsk6FTLsZ0+rY1LtC+xgDCze7ckuQJMlt1kKJMTvRAYBopJ3+f6IiUAIkGD1Ok37KSAAD3x09rmgq0uTncJgOJ+4UowbXrUPhDXGd1v6Oy3J0TnYfG9qq9Y7qzqgQOhIMwTfQMIo/K9exQBKaLxkGdLYj+JKyxLfFe99pPRa/hetzS32tanXrACiXm6OruyxSXFUQO87Ffn55ID4p6Xdtlf/OafW62AMa0pQTTzlh9+i113+/UumkkGOYwLmFBAmPne980aBJDady9iSkKGy+DowKI5TeLaZKxbgLVDGBC/l8MCxja5mw6ABeGiY2AsLokwW2fbtGjHA8kHj2szGHyr11T0uutBkYNK/HHx8TkQcpO/GCCxBtIpKwMLSZme3T5nhpXLqYvlmo+gKw6ph9z1hc1b7FP/65PW3taaLZtR7jW8WqN4SQEREc0n/uSf7GjtUWM5RhVWWFhgm269zm6UkBogrJ4706YT1DIMrrQHvlm2NgbP7BRjAmcMEMaT6Pl8HjSODgjMzWB07UBX+nxd7FFmWQZWBAn9wk7tkuexqRC7WwGEnTTbmwcWlLNVTa/dcku7lZf3W2vrNPvWNyuFofLdW/CMLCdw0mfnKlxSk23dQh+9LyqNArkX6Efuc48kWMevZZH8st8uRzAwI8LvwyITGFa46ce+87gtWLLQ2lvbs2Xlr54W5pIBIh3945//Q1mJvGKtzS0+TqUyWIBwvvneW+2G191gi5Yt8vs5Pwio6+vNNwbfI4zYDVPDxzvKBxxPSPRUvyxXpLRVdJgo7ucUk34w7CE3kpTDGOWUwfKJeOaMBMzdDoQ7JNvr6BUmVGXTtQxPm37GFizsdyC86679NnfugO3ZU2GbN5dZ3TGQfbQEE2gerHjbHEFNYusYmpBTaXQzfSt0RfdmF0/zkCetEnaTWuoiP+yenl5DcfDNz35DhhPTBZwD2fy8wDZFRV6q30sCiFjQ/Ns/fcF2aVluPC2ON07QhLfdd3sEhMsX6y6jlx5NXSKgfuA7lj121DItsrxhQsIgx+VEB93kVX89LiOmmXKykQGOOlk+c5+O9YoaBpsR18chXh4Pijt++HirazvaJHAe0AcCM11cMmCz5/TbO9552m6+6bDNnh0toxUVbbZ6dY8wo5bRSIBgxyR+Ye++buzKQG+eRhijNDaMc9E6z+l95WbWbpavNTG8iUzhWpjYnOzArv327//877by6lUIw7PSZ8cdSgq76CcXHRDp2CMPPGwPfvVBa5FVta5dF7qoZrHdcNcNdtu9t9mcBXOi5dgHVMPH4DGK+/ZaZsu2CAjF7Q0uxxqnMDcMGXkdwJKLCCDTc+d5omyDc0pd8bt6ldWeffqQ87F9WavWr1bFsmGbNDz3zpWInRPCkRCKhGWQECQUDE1YJFpwzdoee+MbG2zt2joHQimOvK3l5QO2dl27MGOhNZ0SdtI7vRorNqwkno4Hg5KQe1jKuZW6APDJzJjqgyR0Mtz0cjFAb15SKQWA+trSInIhz1WCcNKfkJHJf/2TXx1WxaW4cdEB8eCuA/bAZ79pB/ce9P7ka7Iqqyrtmluujbnj9YP9DPSPDD2tq8syL79i2T0CxsbYBjEAlr/BMDsURUDnS7AySOOSQy8Nlh6dAW3k0UcPzujRatUtQOuUlqZLgHdCEbxOgjG0Vx+YI+zDAkDxPCRqB2+w3IYPZEah9lCJN/chDEkrQKiEhynBm1iOb7ihTYBY58xEfiR79m5oSGzd2qP2xOOVtm//GQdcRDrYISLkZieCInG5Y05hLHkBYORaIp9Zor9vnjXN6vWhAOS7m7vcnKy9VZtXPr3Vvv+V78sprT17qa12xtGzMQ9BkrGttS37Ox/4bdeahJtl5TNs6aoae8O732hrclwgASoNFikW02QR0UiP7Mkf8cOf8jrnGD06+y/l5ibfyEflAISEkduuydgl8/uXdAwGqJhYkZAakbp1HTVBACxgplTibw7KLoVhRAd2DYgjUSIOTkh5wmRlM/vsvvuaRRcejIBwyMjLL8yWLhmwWbP6xWCI2dE6DhYltg6+1DAc0HrjSnycvspwVH/0ASJXL9XfHfNmaPOhfDvc22793dN8peqXnPYRWT0Vl8WhUsZV2YVlHmfPxl4ZzMn3//17blXN1+YiBX3R62W0cNfb77bFKxZbafmgD4qXzOy2SUty6JAksVvMTp4UBHTJyiRje1CHaUIOS9ibTiyFDGjYSKdS7gJzpLP1SAuekUkIb2iCBT0wEtBwbOYdQsiB+aDJECjDsdKU5LXkdd0Bo46SwGADceiFCFSjjEtqepwxue66QzZPu++mMWEoSlZesh3URkQC2Jlzzlhzo4BD5jVgYZb5dexeNd7kHdAPwBh3JrrFXi9RsKm7Z1YnnDRk08kTJ90a/ljtseyl1LxcNEB86ZkX7auf/oqdljrujAYTc37M2a+66Wp7nUzZyyow72StjSeWA2IZMScZ6Y9txyua1QFr1/jXSz/6tASyROfaKU0BmMg1EqIlEUnM0sY92OkRNm61NuPuEr2F7AzHd8gqtjzD+b1DE0sE1xOSozwrmRqbee+TL0g8R8OAD0EzHO70eAktLIrbOgpA9HRHJaEAGhgo0ErY6+/ChLz97XuN5beUbp8lzZnbI3FOBIj9AiAwMyRCmiw4y+uDj2gK4wQmVHKBeOioBpCIFOx+de/CCpcxnqzXTqpn+l22e+TgEfvc33wWM7Js9dxZ4S0v52L9XBRArD9Wn/2r//YXdvTgUbeeBhuWa0l+/dvutk2SFQKE+a66CxOro4DO6UIxJzApLugSh3xY3nkPHG5ytRgYC6zDyETBjSDoI00ENBmcIMDFzp9sughQQpx7aDi9t7Op0wGQJRgHdei+MMqplkTlq9GVM/utRrI+lkswFfK+ouIzVlQYrdfdPaLbdM6xuyvfZYGNjdOtoWGaNTZGeQDCe+455owJ5GOohwkNdfvkcqGPrqqiR3Up2OcxbdPbH6k3oeU6RCuOK0E+CJAZe6/UaehUCbrPLlurNEYbNK7sF4gJGUhDUg57+DuP2dU3X5164eKeTjggis7Iosc8uK9WCK5PYxAp2qELrxcQLlmxxKaJYGZ8whj5mTg4DBmyLMuxOVd/VtyqsIFbIEvtFbAC74UEYHIfrZmg2U4rH9wrtB4C4ZoWQoVM8+UbBgQ9b20ret5IrhfKQaxSNiM7DPAqKwGMDkO8UlgozA6XO0LqEcXQ2lpo3d1FAsJSB06yLV9WLyDsyXkvAcZ0R7jJAqEE4OOVQqi7PgEjQZ/6YLDGmbx4r2xoRVFBrn3RikI8SJz2+ZCls3Lk0SIx24Nf+c9Lpo+ecEA8fbLRfvCNH9gpmfFj4o+FNULrDbdstOXrV0aO4E5Ax9iBgYIjOHXK7QqzYlQyzKrkcRp/DyVcJ4AaxF0ymxfQhOWSIUUb4bZ3rNn68gHM/VpysW7ZrOczCvQxCB2hw4Xp8LnR/Xy1oyAuC9ke2AsRCtzrujWqMba3oA5P6fkM9ziGAp3/hIaNBPb+KLyT5BmCCckUkmCtuCRlxKG+INumP2OQHoVSoqOjQp06TavKc/pCo3SPZyJvsPaGKdolOrxXWLGZtirLoT2H7F/+6jMAZlbuB6EnUfkT/DuhgIjg+mv/8lX3JoPwBQinCWI23rzB3vDON1h5Vfnw5msAnEs+WCtRjTQnyAvjBD3XLNYWWomBC/rZqzf0uBiEbLW1xb4U7t5V6ADJzvEeVUGTGOijjl5NqJT9AGE6lYqWRK6HSGX58kabM6fFMRdC5jCP6fyjno80RTRZKf7moovwGz8Ll+kjmBcygEQ/wNwdgm1kmROX1AAvTlCuD554kHDlr18QEbBPNrR7VaeFFfft2GN7XtoNV31RBd0TCog7tuywh77xkOilbhru8VhWrltpa8QpL5T6jhgtLmYNk8RXCTZkOcaiprk5HuuI54T+65J8L09fLcsUYhNUZKtXd7kYhMzLl1fIJLFC9wq1JEb0WW1tgRT5GeuMmQewqQOhoCsPgNbHfe2mTl8Cr7222YXLcLNwrRecUkCG6I40DBgD4KbyekbBBcs/tCgYP9Mp8zA9GPoBed6x/Hj5cWWhrlA3X5pjy+ijmyHmDitvVIp7W/LttD7aXq1MDdJHf/5v/9V+7c9+fSw1nneeCQNEvpg/+oU/st0vy0xLSTpLq6iudLOuZWuWuS4zaiUjwmjoCIbq7HAuGRUeNB63h6IjgIcllyQS1JYs6bDlNVG2FStYBvWnV/cfNNu1a4Ft21bpGoq6Y7JmkWcbMj00Ffka/OlFkZ4XLIhMb8VKvU6do6UwcaM95/5I7wNB8XIIQAZgTGcdhnX1ME2Djh4qJVWKn8aN5JB6RNNckB3upWWvTo/SwAjTsksrXLSbnrUXW5toaaET56K3b35RNgKy/7yIaUIAMSsbw2ce2WxH5RAfUlFJsTQJ851LXiwD1wj4wtP4GBiUI0d8SY4/UAfTdM6IPoxGEy1Fc3OhyctU7gMAfJSTd8FqlZV1tmzZCWtpmeGYctfOMnv++RLHkGUzzmgZ7nQudvHiFhenDJu4dMVjPY/hwLMnkz74cgDCwTtDzsI7Q26P+XJU1KsSqDzdvqRQKh2y3OtjXyMuGnoUxkWaRV/Zmpua7cnvPSmgvHghTSYEEDuF1b70D1+0U/Wnkm7CoKzcsNK55NKK0gQjMCrRwqusMCj4nLQ0y/q6J0aEg6OGWizobsNcwY+QNDY2f150zi+MBUsrf9VVIu77WmzxKQFbxVyrqRGnLFoS2uuWWw7b+vU90m3rHYA4FDxY1ODZYFMG753rTJhQpK0nxKLFktkPxXw5gDmeOtJtTd7jJP4afSFPZUrynKvRg88Ju9wqUQ5benQg4pK2FZHOXq10mx96ejDjBJ9NCCDWHz1p259/KTZ0Ve+FnlZetdqul2lXYbHQlhLAh+rdh8l/lO9EvWVffilyhPJcuhcvwUAudAtaExLLVDCtx3YPxtrTSIOteWGJW7RIfwvqo3kiXzxHIyKQUA55wnlUw5h+/TX9AITtovWlKveE3SHyw8CB5wAhOdL1DUFQUQmpX9rl45PqDFDu7YUWUGF+nnpnrKe8J1O5IhWA7zRyWERge4QgSBgyf+kf/836evuyshc931q8rJF+LhgQQdff+vw3RYvJM0PjMF3AQ2CkpasW26oNq60Ao86hCVRx7Jhl5PhkcMkD8soLaIOJUXJrEcGgRIDOYCAvdGDUYMOUnDwp14JFLYPqsui16Jc5IYEoArKIy2WizjqKZ33opY74w2tHj5rt2T3Xnt5c7Zw88kCwMaq9EcVBQ0sKbU3fZ1DjseFDTAx903n8PHRw2INx3yiTKpY9Yk4LM+5pl+ZJncOQ+dTJBjsmo+aLkS4YEA/vP2RPfPtxd1ukgQDhqvWrDAZl9nzJQfhKGSN1xpdk0BHo4pD8kMUtZ/qF++PkAw3KIE8evhZykRRglxZgqiTu0UUzmVhzUSrgl7glQrihiKiuwSsBeXwx0iSn86XnUdWPK8VNPnKkwoEQmrReumLSzZukfSleJHLg8JiKTDA9uVNAmPuyOoOA29ErDQ+dzM11fleR8xUal4UyY5sjdE4Esh5NAEGennnkmYtinXOu6TlnX559+BnbuX1npMoToJTPrLBb7rvVFi9fouFhkFiO0zOrQZNMD7N/XEHTkOMfPi3y1TgaXJx/2L+kVCZWAGq+OODGxnxnWLxxAYA4RtVF70crei5W5IWQL+T1Qi78B5hAjAQQNjRrPQaIlJ55odhgmPxDTA9DqsqkSXqOdgZ6Fn312FNU19jznz0nBiNlWn2JrwNAFotWBy0ilgPpnDh84uwFnMfTCwJE6IUdz+1I/E+mydx8ZnWVrdmwVhYkM6NVUWOUQxdhiVNXZ9n6k+4UnyNeGNoB0UwE31wug4Ziscdh+caKmcnSahGl9Dwks6pHMaJwmhAgGAoI6ffSz0IZcfFjPaAnxmChKF/oWwmB/tzqM4mAmnuBPuU8nRgjmoCKMJ0QOS3SdliVkjp7EzFiwLocUUy6zemXzud8aJ9VtkeeEDASeYyEypYovS+LH5jodEGAuFdSd+LxDcDnCwPMkPP2LFnYzF8y37A7hM5LEjPA2MlfJXtU9CGhRcJnP9LsAESaBDjnVeXFvsNnKAsTKQwLkH/nLGUhw5BjsoIx2CSVnVQZA2v04Dx/AQj9Vc3E3rDdDWABwFmVfS4uQu5J1XG2YZV4+2jHEGYFRARbkOz/x5LhfwFqdATzhr9hJY/zhg9KXLYOGOOihyaUCR8VSgpFiZAr6osAJRknLJ03jSg0nf0rhQppkm55AFcxDfN8xaZZcdUKWdeUxdY1jFvMKcdTMSCzsLzaQ5YVkxIw3CCtE/fLx0I/Wl7hnBeJi8OihoSGBdM8ludDtXPFHdc7dxy/Gc02F2MYJsY9+CSNJX9Sx5CTqPfmYqHy8r16usoZKrLdI8ub1atbHAiHvDZ4GX8MQzSQbmmEu8Cx3k6pOiuUH3pjCLQOljIhZxGdTlEZqxIAzpc4B78ZAgKgOoDMOq1IY4f2HpqQ+kIh5w+Ind328gsvW0trqzeOAhfJsqZm7XJxzhjwiTUJa7IDlmZdKYMQWwGTJAcgRwyMygBUOGQwK/HUSlSBJU2NlPILNCC7MsKiUveRWJ5371H4jPnILkdBaymEnM6CiOWVFwutrq7arWRYUpfW1NvylV509F1EzY1unOM3ZMWaBaE6nnk9PYyBXEaX9MhUTOr0hkGRzjmK86WcIUQChDC/tyvPVZ3tYhjc2T5UmIC3s4HJ1bnKH/W55ispWnPAbsAwiwR2wnC4pYPxz1q9jGcf/MaDki+eyebno2K48HTegEgg9bojdR7NFbRNJNMFS4UR166I/ZKHNE5xX2B98T9x32StqYBbbgJyHGoFsVH/MOAsEgddLVqxUt4/mHnxDCPUPXuK7dprZ0iFJ4wThiMNfOnCuS94BQglR7dXXlkgxmKGY1asbpoUX3De3MOurckTEITi0kWc7TzdF9xDu2TMC9lw+LCgUKmpUT7L3fLQk+3iWBJUS1gxgq68VTaXRWqcb7vrDdRPXHGC2cdS+Eh5kg6Hk6hgjItZnrHMQZRDahQ5tuXxF+wDv/ITI5V0XvfGNipDioY+eFieeb4XnL6QaVJTYPi6QLQhATT1leiN9NSoc8hfjhx2lYibeUn8EHU5jKSO7uKpI7cSwo5z9KACFEn7m7uJKSiLlNY8e/mlQtFgM23TphbXlLgqNSDHUQASIHzxxQX2/e9X2uHjM2zaQJcfoTkx/8JvBKwzXkikL7hr19fn2cGD8wSApf6hQEKAvUnBgtsvRvnBChyDDQxt04m9/zAH62e8vXHxuDkdfjGW62h23PNvRpFbvz8lrA7OJIrv8aPHrUcf20Sl8wJE3EKfe/DZpA1F0p4sqFloleKYpyOBzgFCXQJUvWq0xDVgQ2RgUTcpIpwxsPHg+uctSJKg2x8L3dXM0MaM4p53ne72XG4apiUL7nn//jxbsWJ0o1Vq8aS5BUuhqyYRrq1HE5nJRAOKfrq7pyWywgnz7Dnjn9BUzTv8AUJ2kbsuXD9wYKYADsvsYKEdASCMFfs8k2A+0olRgOYlCBMonXMTEGJtlCRVxNsH5KtDFLF12i0Vq/N5Hn5OT/IiIIxoOyqI6vL3U6c+kE7+xCWPxnV7cSoH/2wdYJgJd4dx8WxZT/muBkIEAOGhfbWaymx2IrZeOy9ArK+rtwbpleGiWBJLFc9w2ZrlNqMq5ZChTjMsJKcVkR0iN4RYYkaYyXQKlxQIIIZrP2bdXg7uuWR65Ivbr7oZMzDZ1q1LFS3hYI7lSrro5DwuE3N/UmmBrEtkeVoyPUKjRUXR0uMND/UnL+tEr8FQEIAMXXersPLOXYtcTog/MtY+3Z0REPG620WKHoiCizpl4P0ORbPBYwR0uqPxyHMaOVJlUm0YP477G7td5XZaFgm4DfRVRipQaGh2UR0xMZZDx3nkjPFdWpZbFkWwmTriI7hnAjllNZcE0H/wa/9pK2TmNxHpvADxyL7DdvRwndcPqi4uL5E6b5VH9Bps1JBO9UqDIkbFueURB4dB0x/jIBcBTwGFqCg4OLAiwm3iyMhszhMGsaS77oqwXWF06fdG+oGZIMICQmaWzA7ZxuNvjI0jjEWZZM85ifaQ1AaaDRDu2Vuo8CBLfOkNto+Ym2luooz65bUQoxFsBVDiZxOKI2ca86noGHCVj3EYkpx7lm8J3CvuDnCy98nxiQizi2W+lYFn8EK8IBUeFwAkkWg8KxOXw4v3LP6ThGZJZxxwIFwupuVYL5E6tIrI+qT+yEkPmjD48vmfnRcg7t2x19oamiOMqLrLZpTZsrXLtK0CIoYwAuhVGBklQltoBnOE2P4gHhxGxr9e3fQB84c5P9BFBC6/UzrQ7wsjtEkOSem4CUCHQfddc02dLVqc85pfkM9JTh0xHcObDrHK2nXyYBMtBobEtwQghPP1VseTFd7rkCGDbDRs24tLEgx46uQ07WkyzWnW0Fdew/uvTJWUyx6T/QMVt9q3b4OZq5pVZeWVqZVD+R/6+kN2eHet7IMPC+UOAq23W89JkAGoOBU/SVi81zf/4T7utRtnChEISCrF4Y4KZHF/eMeTd1JnoYPhxXCfTMk7ciQTIlgo4C81WeWIlme3K2TIrIwTkc4LEI/sPSLCPIrSSuSGktJim794vuuZU20PYOhyi6wo+TyE2KANdppHV0pPPfB5GHKAWNjQgZGS4lEBSPWlIlO8eU6ZtnTo9BjRFMUfAIExLE5O8+fJEIJeJQ3ReSoF/+Fbb1X4k6y4bVXpalsd/RWqjKsFMcnD0rHgocN5TgLA5LAEI1IBOIhzPaD6CDLK/i8zSkqtdOYMm6N41dfdeb1tvGmjx/7W5jtWUFCg+gKKGmzUi89sy/7zn37Sjh86Evne0AQthzOrqtx6qU8sdJci6vZJR4+vM6ZwRH/gj6CeLNfTtHosk5gLv+4EuOJ+eE1hPMI95sCTOsizeDp87Lnv9+KXdKBcrHLQcJl0zy7clgz5ZJ18zycgjRsQEWT/zk/8VlI1BrDlYlLYxhZXgMEEUNE79Ql28sQJj/jqXXMg9EfDfxgonyty+gU39CcvO6GraRITIddiAtypSlnAik8+UWo1NTNdeFwpxOzAqLc8eaXhYvDoK7/e9+qoaoRE04nU9dBDCxMD2z4iI6T6UCxrlXmK5bN83XK7/0fut6tv3CD/5TLZbQTaYoSC41tYtn/sv/6p7VKUND4q/HIKRI+VSArBTgrrN62X8LjWtj251fa8uFsrkcgb0cfRV6NhFTA+JZ9vfJ9vUyzEexdVRLLGkMHriTvHlzXCsp+zCjFtIaXGBIaFbTWClgdAPKXtRIiZMxEpDTljKu90vbbY6kDUqqQZxB2gvLI0chFNdSLVB8sSaF3UfVZh0HKSy1viO2DBRGsQ3gaC+IuAepqwYpneWStFPFgAr7xO0ZP92kG7rSXioJHbFa3qGZv/SRpAQ5Vxc/iGCLmTBsKGerANL+GdKIDRxGDccfUtV9utb7jNvRSrpWOXw1i65FDisCNAuOWJLbbv5b3W1RqHAPMxnSnDkdvt+jtvsFVXrbS5i+a6WGzVxjX2yvM7PHoGe8yQAN7TiMZc/B2ZzeF7EkW78Cz6UXN8fMM1xwhJpO8kNHpofbJsi6TRNzVD2i00XNiI4ozPfi51ByJeIaec87gYFyAiSX/u0Wcl5xLB5BMieku0ELscEcksh8j2+YogMyurDdeo0EA6F1aFsAaGhvO1OrGc4hy9HgYtDKacp0Sgt2gGwATdXTEEKR8c9IGDc8V0HM4BxNR4ejFJtWngC4OvmkA4CJQDED7ycKkvxeA3fF8KRauCseYsmGs/8is/Znff/3qE+KkSQofOfmTH1X/+2CfsuBQDHkVWzAzYcK5oyfvef59LIsoV0rliZpWt3rBGUcIa7enlT9nj//G4yIVu6+nolFQsYuwQ9Pee6fDAShXC0CVSi1S6PDeMG21RhwOyCIDJmId7oQfxM4Yn3ELLggEGOx8UajVQiCwHboTbExHkc1yAOCDZxfOPPSc6ZfBrgvCeKUDMMXBIj786hYFDFgsFEbgOBKF3STfjF1IYMorkEN8nvw+WTjRZVQXSa8vgFgF3r7b+QrYFBwrTcrJ+BLY5qS/dsNHPm8QYBiDErMuFy/HkUNSCVUvtvvfeZ+/4wLtcUjAS3Td66YNP9u3YZ4d2H7SOzggbMvE1a1fapjuul5ZqoZb30sHMGjgiZNx49802b/EC7cB1lX3nc9+2+qN1sn4CI8LEiHmRROFJRamF9r1N9HT00anVOWOgC/+2018iJXA9eC/S7MTXOhBbEUMIt8YRRgRHyDDa2lsUVvoC07gAEdlRw4lG65GeOSTow+o5s6CHwq3cI62V4DgjnbQL4fwpozLY4eiWrrnlt3nOX5wCSovpG9eBinhGwE0UBOJSw7UijkGg7Gb6qddDMX4cUu3QZwQiSwMhsQppFK+VSEy1QsEs3/Zjb7O77r8ba6PRaskpdqQL4sp85q8/bW2NbZEgW+KXQtFha65bZ9dqizd8wPOEfYhH0SbSQ+aY0llLqLxgljOHZfIDalVokC2PvGC1u/Y5ZgRbd/ZF4YnZFq1G4zNTxyKREdGyq17wQfk4qunxeObQiOlx94bTRXofdbUUTKt2stUa92GkmhuFZC4wjQ8QexXASPLDjhStB32IIDtPDYyMHAbnxrtAxwUZWS0lmcCehkbTv5CU2bvLju+kBDuGTLrPgDoyPuPcG07haByOSr5GXY0n8315RntyRthhpKhbXvZIPxpXFBzQmNu2zbGHHqyyftGh/RJVwEDAJLFk/vzv/4JdfcMG1JhUed7p5edftpc3v6xOR3JDgJDlfu11a+xqbeJYKIEon5ci3Vltj/bh00zN0rWM1T2KmralcIzMFnEnpWAw2XmyTCPoh4kjYFWNmLqN8j0pKtZLzIOPsA7+YQ9tfhhnuhQ/81d0Dk2i/+id0bBAJwabKoxlG443wEVfkAO+Wjj2JG1OZFmDTCNOiCyI9DVaAr1noBFj35Rh+Zh9/vR1ugBYpxEQpgbOXwIC+Qp1VF5ooHUaZGgW1ghorH5NFsszvs3HR2PmKD+d4muMIViSEVQTy5rlDhWc74Ei1dvGOzbZL/3hL9uGGzZeMBBS/eYfbLbDEteEVCwMeJW47bnyfiSeNRMPEO6WmOiratc3GjP27aY8qxNQSt0umlSGIAp8T8TdH/qFH7Z5ctmFviQhViLI1HcPNzs3HdWRBjSdo04MK83QMYleENjmvgOQw6gw5vp8HLZZJV8Rx4/Q/kLSuDFik1hJKg+JLxI/lZGSN06OUt5PHKaiMx1HaXSCBckSRifKSz9Z5R1IBbiotjx4pWgW0eZqkzCydLppmeIi+S6fK1E6Ku1gDIFFz+FaPqyoXrRGcMb/5ed/2L0SxyKSOVedZ870ZX/1Pb9qnfIBCbqWCsmcNt52je+2mi/ZE7U3aMj2iQraHjPUC6AS9MZK7XWxplhLdXGx71GIfPLovqMuZK7fd8yrJ9IZvsm1spiBruPPUwA+v2BQo9vJb9TtwUsBbAhpx6pAHEqSY0S926tVsumkLKrg8C4gjQsjyjVgcKeouFKCbZZKc5AvUy0YFvqV9E2mX1lUe+jFSOnlgWsyAnwuVeaCUdBfMhjxiQ7OvAgAHbjV6iJhRCKoQgtVSNCNcS4lIFOEwcAIwRNFJA3SeXwd4BxqgebhffelL801VIZufOxQLytlWRP91G//tN3yhlvOizOOGpH7e0KqMW20o65jcCFQ1B804TU3XyMsN8sbyUSfFm0YgLBJQLlDAPm3x82eELndIFqwR30pLS11g5Mb33CT713oNak8tDAAIyFECPRJxyMMx2AMHRDeiu/7CsW17sRtC9lRac/UWAPUjhH1oLut083C8H2+kDQuQKQyTICQHzFQ/BXrqywt19YyavSwpK+EzRtliOcr6rDn3OA1LEgcG3KhLxcnYE7DH62MSTLHIDFAA5RLRJDj4COdhfJriZbmoVW2hVjlbN1SKI8zvTtK4hnbSXz3+0vsWw/MdY0JgBz6MneJtt54w8128z23jFk2OEpVyW1JHrJHDhx28Qvt5694RrG7WMyeP0cO+UJ1SvqEE2wIEIZUJaz4AwEiSzXLdouGDtJog+hWt46fXWF5MdbC6IfQfMeln2YwA/YNZQ0e+TrPlZiMQbcF5n4i0zgB8YwY39wGQM+46sqhRt9dPLiO/fhKQDeYgCEfjPoypP2UF8qM0P6QDLoc+qLyqx7SQjEsaFrAilqcna6DaMcaBnoP/TCaxXSCkWmUERDGC48+uswDqIMJUduBDVnqAY4N2hPw3T/53gnDhLShVyvEo9961AXYAeCRFc6cUyXxTKmb0QGE0IcnBD9pIOR9rvkDGFm2YWTQaM0R5iYGJTt4QbczPthtooE6rgD1nnwZCGMZjtGjaA7CPAy9F90n8i4Jzhk05MhI5yTm/UKShvzCUka0WhjQdEk0K6er52xnyK0ZoFNg+vCZcA6wJlg3ygvtQmy/DokS4BJZikL8Q+g8xDlrVs9VPJz6xEQMwx4h9EREg2oQLAgm5Ruj5OnC8izJH/r1DxIyJTSMRlxw6pbo66g22elhlVA/KZx9CNFQQRvSTYCQpffkICk+rF6A8aGYBL6mVC/pP9uErNu0TrEpT1p3UxTeD4nCMZn5syxHGDEMqgYhmSG97Emt8ZUnXMe3/cB7Z6TiyygENGxclCcby5RHgoH02+c6Hz8gxpCfbmqgtwZnLHRaXQ20Aw+Tr2Ywp9jdVBs1A4GYDtIRKiILwMj7nIfKlZevFKz4pgWV9j1rth2nIsoefgpLZ5Zc3AAw/cJ+8MTx2e7rAlOCCVdfexRR3xG9ypohg4V10u/+0h//ii1duVSVjT3hXosLBUslDmQjBbck3iGyN2mpvGC6Ujlb2qlqKQVUP//0PTl9eK6aoRnXayVvUV8LRdpoCzOrWV1jz5U/l5TNCWGJG+RpOUPLelEYXyYtnCcfOLnVomSedBlPVTYrUZYeERcnyqUH6Xx+9/x/xg+I56gr+jL0/QE4StpTy/siS96oTykYjIDLc+VivwCbzFKAOt4bDvECxKwLbW+YXeI7BCC2aOrqd1UcxgkKraMkuy8ltC4AYAjqGVmyRA1FbVchYFi2frl94Nc+aMvXLk+31N8/2w8C6if+8wlfdotlsf76d90zouoL7RQqUg/REhdYIg3KoFGx9OYyr2HZhWs+VwJrsjzXaDXGDG+JPp4ibN0cqIEVH0QX46AZKXK1H0MZ9duxJFlCb6PsYdR1e/ABgNih5QRGaCKBkD6eNyDmfEQjjVb8tQWMmMmw7JxlrQlddyBU5xlAHyudY7buA8KgxCMV1wlsIj7D5XSt7PIgzndI54raDxrpjCym8W15+SVZxMYpMuGKeMjIilo687mznSb85T/8JThXKhpzYoOc3/6x37KDO/dbe6yue/bxZ23lmhXDQrm1SR2mfZK1/sYfpmqZJvELZmQYt+b27txNCCIeABG/clSD2vbWXwQIQ0cITTyYolqC4W6CGZMMMfiFVzQn0R0xghpXMOxEp3ED4jkB0Fs4uH4GjOhA6KMShkYZyRbkT4wNhac6H9GIMXXDawJuBrdFRFSdFKvIyAhtTFRZaEOAEOK8S19sZP0cDXgw30foTQorUjBeQJD85h99q92gYPPjVdtJpprd8uQWcdzHZaPZ4iHcqIOdP3Eia9B2tOkkBYSskEIn9VmpTWinMBwhBVCEURlPahNsVIhxcGF46sXQZ8Xnk6NYKFRgxSCAFXNII72YrDo+IXFJOkeso89EyqaLksYNiCO1Ikxs8vkpE1+Qd4UvsUCf62gQHPWPF+I8vEWKj/FzrsI+KQe0Wc8+uTfi4hi2KIuW46gYf10/ySSEGxyFdVCnlc2stFnSkS9YvtB+8jd/ymoUNOp81HYwH09851HrlmlcWpaGY1arnMzYF1mYecRdPwM2TmunhqpJ000/2/kMBA6iPYNnnWNDjTmfcZ8UDtn5C2ygRR9FD9HXNKhh0hKxWRj3VC2MvSc9C/nDLR0zLNFxwj7xQtK4ATEg+/DljqlyxDcOaYMNH3xPvfXbDM7g3QCH3KGufn25h4UBH65r8a3KsDLBDA9fjjAe4fWRaqEcsOQ07Q89V44rG265xv6LVGM4fV2ItgR/7hXaLeGRbz7i31pMklFdkkK7wg34MKysSWx31tGCBUvE5UZ3x/47SwzISpGEpFbtSYNjG0R7OdsAACrASURBVMLyUKeXX1lt2XVrrfeV7VIhqR509j7ANEJ/ow0YhSrxOJTnN7iOB/1MzAxcUq65QPujoEWB0GavXxJcYuOp07H4YbgcMFtaYhkwIksAfsvDeqRC9BrcpKuSGCMSLpW+fHCRsZe0Wc8WhUljQx8ciLC4ITnWU5nukul3Bn9yTMl0G+ywfOUye+9H3m+3vP4Wma9Vj2i6P1jCuc/kj5I5vP9wds7CbymccpcE6DICVj1Vs2bamqtXOxeb3nYWmV/pzHLJEdtAYE6JdEmU0ybBfxbojKUF8xRW8pXY/vhcraiWVgmuuamtQ0Ypx11YzlcBVoSaw1Rv04+/1+w/Kyz7jW/KLI+KNWhD54KKYvIlqpMRi6CUFRtd89CUj1ZMibouJI0LI7Kz/Ew5A2EM6YCoyhtlsX38yHG3lQM7DCa1HNcBuZoaUWP5chL0nh6BqAPJnXASH5H5waXt1G5RyAoPajn2j1EDjaFmMebrEpdgMsWg4GNNykjAnRVhnbbXw4hk9sI5ds873gBBH2oabPJ5ni2smW/3ypCVkG2E40A0A6Py7g+/B4DMqYePmd1Z+Zj7+yJRU5cAqFN/JCZ0RgyM52oOWpY5GuJZ0wFErNRb7WjtUdf/ur+0iGw3tFVMojxZjQ8cOJDNPFYlSfkJvkr90TSdMG2hlWl40r2YbfGmoGuWRjVJrDCElwEmcuc+yTLmk1Sx534nXyoHws5B+3gSIGCyjgMNy1PUO57EvZL+WcpQCa8EHO4IHnrrbw//YWA8i0aGr0/nbOAIY4LDFL69IA1oqwJN1nQBHfaBS2SUUD6r3Al+nJTgGvGW62jtsI//3v+2YwoyD/DGq8nwei/wTn5+ZJ2NpXLDiVNeGvsOziifMazDfMylMpsjQHpYy924tLXdgTD4VrHcBj3zaM3DCOJ15dFThGSYY+149mXrbBJ2FWDmC+shkloukzFPCxda9p1vt8w//x8Nhr5wx35AXmhmfO4Aym2uBxO65tnSpM2Q5Q+rzYCkGQRWeP/P/RDIIBQy+MI4zsYFiLJE9i8g2kcvqoUvuVmupekUNV/UJB2JVUCSUYgwguXK7Vz6vcHzgD2zvo3tbu0iBVNCyA0SFsLVC+bZTdIB40+9oGaB62hxa8WqOcOXKywJo5AvF8hID0B7orFCpnkxkgTK55wMYorPWzzPTusDbtM/gBG3zMb6xnh5k1BdH22NLGHnaObBekPVfLSd+/fgvas0XR9t4+kmO6TovewW1UkMSvUxI7XqopVLbN2N6z1fXmFhZqChIZudoZCBmOX1i3YPQzFSy8Mz3tZz9osmINb1Un0u+YnVXuaNd93kakW/uICfcQEi4ojp4jjTqbW5TdHnFf8vntzAzER51Hp1JstyWSxakc6jY+OLc9mgciVfn87TX2A8MG3yYX6pWWHZ5BvNLcamWAakK4UJ3/zDbxYNtsxmSIsRpfglZcJg031reKDlDizKv+n6oke1Jo9LuZgHMOI8GVPs3743qaZJgFiPWk5MRr5IimkiMyoERPPkEgHWGwqIAOFGUTxgzQ2l0tTIdvLgbvlF76y1+kPHvVwwZJ4w142vv9HHKKmsSmKi++617IMPWea0sLfTimFkk1zRXPCMFOZK7Zole8m3/uxPWd6aNfHDKMuF/qaJunOWxSDOFb1RFFuI8AJOPO3N7Vr2IgEThHr0lypOutsMNovqiKdQK1AVOpvKHp2qn3qOHrmus9e3iyU7WG3h8sW2dtNaW1SzSGbzmhEHURWlF/gjITiGZDgjTJoW45SIZi0Q5/xqJeq+7z1vEm1Lu6PUpm0IiDlYu6fW41RzF5M6AA0VHoCXTgAhfzWFUV8B4C1PvuDegNGdwdw33HUjqr8EaFxCcPfdZm+4R/OBWA1OUfmZh4AUwuv6GBJjFZm7ZytEB/zGr1lm1aqQY8KOuejtHMXiTF8lK5FCRf8C2EhNDU3WxLIiRBel0GeO8bBomcyWqxPsOqp98XIwX3ht2FHv6n+viELfnTMWpELMB4etotIi+S8HqGbqhPOcKcr3yKYYF4AZoWciujLPZi2cDWEdGjms1ot9Qx+SfMl6suiXI4NewQBMlZgcgKlUH2y5ZJx0Hm2JyS0GNV6gF8GQAOHNZWJqxC0TYF1cu+1/eZ97A4ZRL64qtSVLFytC28JhXcoTo+ZLNAjie9+PwgTqg3WpRhoYMdDVSmbV1WZ332myIDHJviB9Jnz8wiwOa+xIN/K0NN+oL6ygaBCjNAoQCTvRK3EOWoMkxbpMgCmr0P+ZSg2uANiBUMDEfeij6IsDU8Z9474/J0/UPA/HpqWVHPxNl0oMMiGkcD9cEy4Pwn3/jv2RKEMP4PBY0ueKa361E4T9ckXWpT0kPhRCuDz9/aedzmMrCT64CtGIYL33aDUF+ABC6EKAcIECR+EDVH/khG1/druHLGk73RqVp3GdM2+OveXH7nfjC7855CdvltSYr7vd7Ed/2DJ33mlZiZSyM/SnNvmfztlkOvP6u80++OPiim63vAULMhcicx3ShJzLcWFEMAnK/SAioSQwIw73CFJZdohwEGDKoU1QkoFGrIgp61C9ywm5APKETn2JBqSU/KD7OsId4zXGTu4doiFhPOAyeyULc+wXvZH89oum7BQtemDXfu12sCtx1USMMV9umBgFXA7pjrfcabu37ratj73gzUGuiGvpS8+8aLNkpb3uuvUaT4UwEdarUY73xFIgZIaIa4g00SGSCCesB7/6A2s4KQcm54LFVGi8iDrxrg++e0QLoNB/RDqcy8w/a+97j+gZMU8hab6yWN0rx6VYQcYFiLSxUjpRYt2kE8vfsdpjsqurdECkdyC1kDJC71k9S2hEHjhj4uMQZeM6vSzwSPeI6ULkK5iVNpZdAS7LUZO2cHVyQPlgQkjd2k8W3e5O7ZLKbgfsGe2B5vUsX1gUBoeNyy+HhMP86995j7347DYJmBWAUx/QQH+ne/aViRbDeZ+dGQq1+lQI+Dboj+SekDp2Ssu09amttuWJF/yjowwwa0bcNr7Rb/6ht4zZoPdiLLXe2HH8jGtpplyF2sjMkqUKAszAIXeKWD6875DkdrK9T2ArObEsjAqAyHJK8B8+MwAIwGJ8+SM7wOgAqnNPEtSKLkVuRQpZiXhQf6jeyYF+yRn7pInvkbYFINwtLPjA5x4QIL4kRoXdsNRK1Ydo5x0feqdrU7ywV/kHgTouCAi38/ERVRsJPrpLe9Y89f0n7eCuA0YkiH6RGXzUcMHuFSTmAhEgIp+Hvv6gbVPIkgH1E60H/SQW0d3ver1dIxXmZErjxoh0bvGaJbJ9q3SGgEHC2vjI/mNy+Jb8aqTeS26lUF3SdojIAY1p0x6CVDJwoyeeAYjikoURD2i5IdYN77QIG6LNQWRRIpN+Jqyuts52bdnpnCN+vq2ozKArhSVmzq+21deu9dB55xuVYfR2nv8TLKo/JIOLf//kl+3wzoP6BrGKyVi91HT/pk02b3rjzfIcvN7Qh4MZ+VoZbz62x7/zuIuAkBmGJRkhOu4C9//I28ZtRXT+vZiYN88LEJet0vZmCrvWIg9/LE56FW2eLXLbFc0h2UmA9oHCSACggDFbPSvinDsV+QGaMKZpoky6drjUSyzRMc1IGDQcpIqmazsMZQTD4ZNSJ1Lgsf942P0zWhtaHTCPKoAomh4PAUy1wiEFCuy5UoGMPvBrPyGOdFCMEdX56v5KHJbBlpEPqPV0s0f68mgNTe2245ltbsmNaAxh95JVS11eygf4zMOb7ZmHNjtdiP81EWmhgQHCn/qtD4/bnvLVHYWo9vMCRNQ6c0XD7Htlr75gyfpkDMrulcTWjoBPN1NLrAOQaLTMgvlaU2SK1C2hK4DmwAjdB8sTL/QOvDEw6gnh0IgZ7Y708YgBaPXahuvfP/Flv+NAHT8Do0S2iKIERC/he/L+n/0hojPQjMsu8XG8snVHFsnDs489q+UlMlQ4o4/tJW2ss2/nPtu7fbfd9fa73VTtkW89bM89+pwdfGl/0hdU+pi1vfG9b7Trbtt0WfYzaewoJ+cFiOzFfO3rrrOnH3qKUBPuXkp8mzpJ9WulYlooQI2CuqdqldAsCyAqjnbmeB1ET4T5gGSlYaMXOEA9mauAS/jS4lSPAYRb6eidAHCBWQnaE+7jCgpz8sHf/JCtlRXM5ZzWXbPeflFRJPo++tceC7GxTh9rnBBWExex+VSzlUqD1CANzCkF6GG8+GZhTqpmzbIf/dUP2BvedW94bdIdzwsQMX3a+tSWLILtEPWB47GDR0UrHlaEVMJmqOgAXYwYpmACxAyakBj4oudhSJXHsSFjqHvxuyhjSgW0RHVYqBjabn0THion2HG6CHgI/kKVXSKDgtkyeCWi1hvffe+4fU+o/VKnQLdqj7vsF//+Cy52ajoKMyZ6Wi4FACF/znilGoc1zILFi+xa9fW+970pR4OSyjYpTs8LEOmZ+0ZITUUs5T6ZNGUFXA0yjz8s53GiWWn3vNwBYP1AQp+WJ7IqO/ABdTHk8VYO7SgMqEco29dra4faVtlBCguTwqtZYYUKMUMESbrj/jvt/h9+m7baqMzYRz3bpPmBfNBed9mvfvor9o1Pf93aRYM7MKZ6QJ8Dk0eg0Nvfdod95Hd/ftwBAHBx6IkjcBTKOmokj8NUtRf99LwBcYZi9cEEEOPvlAxjSWwCs3/HAY/3jNA72gpND4AxTMIUX5rlOTNvfrz7FL69vKnkzEl06sxK0MzEtxYLI4btLYigESycizAiUNjgX/3Yr2vXq+VuF3mhJklxla/KAftFNmO/4c4b7WsCRtGP1nBIO3yJKSEBhKgGq+bMtnf/zHudQx5LhFqCrLJavSyx1o7nX7Hf/eBHFa4yMm5GU/WJP/un7Bve+Ybzdpm40ME6b0AkZvbbFOP5//71Z3xnc7AWzArKe7QsyLOmV4pbDglgROcsjJhZsiTaub5XgBgSWDAItHMwYpSBLVvnlkxLbW+BjiVKRdJALJT32ni970LVl9sR0oc2nThyPPvgNx+0zVL9ITeEsyaxWwGh6979ofecU0wjq6hsswJnEen3a5/6qou3YPRY5knQ1aTtm7dJ/PWK/ezvfcSvL/XPeQMijkYo7x/4rEzPY4jAapsB27N9j0cvKJd7Y27SMquoV9mapabtogSMvBgNRARV8TkvBaCMCyiUJQhYMb29BY/OyKOP0L8f+5U/9Ymbt3h+gM/4zcl7CH3Bcf/FzS/a1//lq27J/c4PvVtBoW7F5vKcfd384FP2+b/7vAeLh4wayckJ5o6Aodsef94+/j/+zjY/9HT2lntuPWfZEzmy5w2INIKB+NSffzL7yjbJwQi/r6+Mr/b5R57z7S4WS6+LYGbQ3FxXCLYXyVK4TEJumbZbf7Q8eKeGdj0Ao0RBLElVsiVkewuiW6Hyc8890YvEksan+N/+6YsYw2avFMwYJhp5IzQdpNAZMYXEyuFeeD70COCi6Xrk2w/bp/7Xp+yElvauNm2NEZM7QXDuzI9IoiA6QybJOP7r33zOdr24M7tK0obz8Wwc2p6xXF8QIFLBhpuucauRPS93yOC3zzUaqNeuvmWDbbh5o+zuikXTSDkVgKpcGHHBAsvMnWNZxBAwH540rsEAk2vQbDLUnCikhsa+bHqRXT2z2CMXPN8nO0gFTYJ+6u1uss3ffcr3iYbGCsubF30F/IyFmSBqK+6tCLu/+ql/lwHFduuVTppAA4wnHn0F4rRLS6Lww2FYcEbr0MoC3U2swzNn9tgn/uc/2m/8+X8LWS768YIBcY22XLjpnptd8Gr50nnqi22U3eGR3YelitptV12/XoCYaySRFU1nLM8EeG+XxYekFCMnDSCrNR6AyB0Rkks/vWlWqTt6E4iyWZodRZJxZgdHqYe/9pCwxhnUj9mhjksj13Fl3MWT8NN/+SlHCrghNMnZv9/jIjJuka0mQIgI7MbZpbZaofzYyatfctkvHWy0bSc7olAiyt4stSFAvFX2kZcqXTAgKpJVZs/23dlvf+EB334BUQ5pz449boQKJ1uMA5VSRCBrmUXLgpUvDkQHDuqJjDJj4tkzRpnj0zRm5JbMwiQK2lhdbG/vqXLPvt3y8GNAWVqapKEImLH+WH1W2/YmeDUu8Io4sFS3iAw6uLvWDWr//9/+SwVRrXeLI7BgcP2k8ygCZmm/vnUKybKhskSiMPl2S39P+GcSe/phWPL40Vb3C8rTdHT1d9n2p7fLPbY9eylUoxcMiHQEPegKKeZfUUyUloZIlINbI1zY6fvvlmFCqQcnJy8pywAsWWx29KjkiuXag0W0om99EcOMH0CFJB255o/lXX9EtFqoHe3fslgWPUpYcDco/jBhR1imD0vn3CvMeELcIcA4RwEwg9DYX5jEPyy/GHlse2qbPfD5B6R12WVHdx10O01oQDcFU/8YLjYlYrN1tgFhB4bXzZth6xV3vDK29vGxVb5rq6VkUNpyql3+L1qgWMqFGFA7MoaXIk0IIEpm6JqWj//+3yWAiGqKLxTDTSy6l8ibTN3TAPFPgIjKRBEXMuvWW1YhuzJNgVaMu+2AF4YAoORGnPS69tf23ZVu1SaRxQLsbx1qUkDKyByKXGzP1SMTqd/90Ec9ogObnY9F3haquJyOiGDqj53wPW4++oHf8viHLU3aLlgGwDBqQZCVDjIAFiyVoP9eYburhQnZhb5MAkh2kIqYk8i0Ttyi7/xKaD8i7xLAip1fGe0+MYREjbgUaUIAkYZuUCCj9devc+MHoh0gJmhsaLRnHtxslbMq5UI53yObslWCc9HqaVam6Nmr1podORJZB8t3Y9BYQhlSsJcMBnQi9yG+dcAyh0QgpsdPKNKWmB8sWGCc2rQJODFo/u3vv+jBMfe/si+7SI5XYxF7eKGv0g8fDWOI3eVxcbyf/4d/te0ygCAAJyZumH65xiUmZ/hMSVgqzZKsdZHGBN08alF2XmAzx2ij8ShfNICgBZLGUR825nYkXHWz+KCnFQz+5OL+TBgggm2e+O7j2c0PPytarceZlnYN2BbJpmq0he5VEsDi/M62DGFJwDTMRCtmtr4YcdB9Ylx8+U11egThtqNWDZ4WH+3NN+BRY9knjtRzpsXtFrvF4PQpxEl/a6ftkibhwEu7bctjW9w49lLRPd6gcfyA+Qjfslkf75Pfe9L2vrzHRS/toqVxlQhWRg4yMCA6ycgETOSfAxAuFahBkSqsEXZbIaulKPFGANfQIF3Ht8CQPWKZ28TkUQ8pCLpD7ot9nDBApKFX3XCV3fmWO+zrn/m6IrFG8ba7FMAaM6bnH3/ObnvjbdIJY+AZp2lyUYSDvk7WxFpibMdL8eCkBy36UsMrfgzjSjbBNV6VaF7uXlCuoJ3T7Xt1zb4VWIuIbk/CHAi+2QEUO0YwJPLPN7//rVgKjVBB/N5FPsjFIovLK9bYL2h8fuZNH3Z/HHb2wtgYbJ6VrSfRgdl0KFgZhWblyblqKfSfYojfMKvEt4WDE2Y7YZZmHxwXSaTHM7ytbuM3hO+LGL0m0dYEOWUbNcQ8iHLwYQ+xFsNbF+s4oYCIuITljy+a7VNZXjCcPXTwiD33yPO2aNkiWy46pVRByz1pLDKEI1kqwXed1E7HjkZO+H0iUoYljUwAwJw1G4G5aEYR5piL3TA74/FZnm/otAOKk3NMMaTxAmS5RqjbKQxZf6LeOhSWY8+2Pfa9L38nu1DtYr/pcwmKhzVpjDdYanH26tLH1ixOt0kee/Xq76f/4v9o+7KDro1q0t7Hx2Uil6ctLZKkNgcQwtKGiK8svRUAm2jsmrICW1BS6KrPZLszllhWFZd3heU3KXH4iTDqYUUROyR/H7ChMyrKRQm4hLAB0aVIEwqINHjp6hrbdPt19uQPnnZimh7Vic7p1x4t6+QUj+9IzYxlUd+0vGTwY5mnzq5a4aIcB8ZmMS7MQPjj41ZeOLloYqLfjGgZ1w54PrbQlcBbGAJVIHsLP63dSx9XWA+Aka0e8JFhagiUeUScNX9PaqfP2Qtme8hidOdoZgisPhYBctSJkX8Rr3QoHAv69+dFnjz1/SdkxX7Ujh+ss0MHDvlLwZ4yaDzCdSiRpRfZHwnGIyy9GH8ggoG5KHOSZAjAQUd7T3kzGqsIOLmOk8pGgdAv1HdMmJDYQkjeyI0WC4vvtQoMn3bOD69ejOOEAyITyGTWa1Ob44eOqWP0ODKI+M4X/sPN2gm5wV5z+ElHSZyctC32ulvNHn40NojQGuECbOXwsYwG1BmdQEhL/+zX1BFVEzI7EwMBzt7OuyT4JpIYMRVbBYRDEz4wO7d0O5AQgaFAWObX3/8r2aVramzFuhUGxmT/k8SaKFUAGzMSZIB9rFFzItsD4H7pHb9gvXKJ6NVeGkSb6PUgmt3OaITXhwJgMEQA+yF2AfDwYGT7DpgyOFv6BFOC5Toc8IiYj6GKhisalzA2jinj2iXq0WpsjXI826qx2dHY4bEmeQoQsqXa6o2XzqB4wgGRjqDrfeibD2pjmyN2tPaI2yv2aqfG2r219uLT22zxisXut4spWTJigXE5UKuIk5IrKvKBO1qFQQTS0oNLReGacxCHozvlEwCXiX4qdcFtgVVpKYN23FvW5ZtIutxRjlghKDmC8N7uVgsO6sjfMLQ9+MoBN8uv0n7J0EuYS4WECRXX+Fjj3tqt/kHbsWOA2xEyy6mUbmr08UQPYQpmKMZNhcoPSy7C5Wr9sezO1OY90L9wwbN1TjksDhFTpw+ZPjtAxjVwCADnmFHXnvxNnYWBioDwGWlU2FgTFR9iIJza2JySjY4WX0LX24sCiPT7+jtukNT/gH3tk19xlZ9WVSe+cXov+WqJO1+5HjrGilk5WLmJmCKb5olQ983x5O0XQZuOqPkYdRT3vlrxTMnHl9lQ8uU7vi+syb8yOaOvryqy1XKiOtldajuauhwDbFXQT7wC++JJg4YMGIklvF+YE0cs/mpVdMBeVBNSEB6H62FHh5jBd2ECSGG5DfnniLaF4UDrQVB6MF+0Az2dU/KD3vX/cf/8nvrNkXHSmEC4uF2DMyrxmPASmTjwF9/u1zv1wtSBsYM5AQjzxOhgZva+n/4hLKh445KkiwaIdAJ977Yntll2zwGPLEuPWqVUf/mFl22RaKab+m72ndm57z3WYGaWLxMNJ0A8WR/5t7TJqocJ1SD5IHqECEafP91nAPXl875PhBekCy3bUaE8YD8WebTKfQEtAhN929wyEekK/i76CIwAxwhgksRExokyogKD6CQ8CUeyhiq5l7yaul8iV4Y0kwF2Yw9BsPTs4nzt5KRd4QU8lcKCqN3gePMRW6ULo3BP3NRfqJTxIKmdjmkDtcO95H1lduzIe5IRKvEhPny81fsNNiTRxyXLl9r9P/42D53nNy/Rz0UDRNoPF/3so89mP/tXn7E20VIYRLD9Q5/sB597+DkrLCmSi6RELh7RoFBjqUGVdU5Ggcez10qkI/vGrFR/Hmo3fMoUDHpNUjwBGvVobnjGGX86D3l1CWddJKJ/tmig7oFCW1rWZ0cEgKs6ixVxTKSDAJOEPK1bkRfYEiLEZISjRNg72hG6jQRAsZ8xKXgeAnhsG8ZSiysPtJ/Tfyy3OvePhhe8W2qoY05dADx+j4fppDx0j8QH6okb/MWAGd2MPl5uxR9Uu7i2JnHwz0qd94pWh2btuQs2hC6FHMHg9s3ve/MlM/8KzbyogEglN911UwYRyU5FMBjoRDwg4akA7PmnXnC6a6ZCmGy6bZMIZCKMMZDCawsFiIp0midBbhbrnJ4m3ddo+qDHM+OH1CwxebzuKUYLISYJ95hUX7eUScu8dpq1xbIyX6xlkQQu7BfQHlMIvFoBZ61EP6dFyENHsq8IwAlgjXYMWA51IzQd2K1UyxxMRhn+Oq6/pSa1w8kRMFPcfsiOBGPptp+TN92nwewOqAHevM+UE8qKAdP7G5fBLe+77EwEhM9rdy5ike9vicRkcMkAIdFl7//A214VS/eLDogMxesk5O7Qdqr/IrkZ/i1B27n75T3W9y8KFyIif+Mt10rOuJjsAjjZL4oRyG66NgLNxx4zWYbG5mLxgHvGeKJ8MvxG/BMtP+k7Pqk+WXqf/PE7LOckB10tTcgiywVANVq+SWz5hWUPiTg8nHMcmsCEQU0GdkTm5zs9eV5BQgIYvBkzMjGWyi2LuoaX73m47Y/PkifRREVtdkxI3frI9rf12fbTXfaNQ40eED+sFgXCzHDJPyc3gbXXrMttziW6uiSAiBkR8aXRO5u0GwEY2ZEAWVtFtVscKwZ2lW/f5aGR0bosWmRZMS4ZCXqzJ+QPjf1ivAnh4FylJs2XYQ16uBXPRViWkgfhuWbV55ZXBBRCZpEsUoAI7eYplMHFiICjEpLVMVV39Hb8CyDm3Igu0mX7nSGZ0s/Do3Akv2M6HXPalX5Jz7SKwMA3S48PED51ss1dcnmdRO65ixbYHW+9026793atUqNbfvsLF+knIPiLVPxgsQhGf02edoRbIwWKDrHOZoXQeOHRF+ykrHWIQOtJA57BjnHVSsu86x2WWbFC5mP6bgJx7pnSg855+loFuArr3F30eUy/GrVgjL960bHdeRcQvT/G2gazxfUO3ojOIFH0F0hjbiIrZGsQOORnZRhCipG8n+OS+uO//OOvGhDSiEuCEb23+sEZCCdyZG97Fa4EUyYGDJOxFzZvsU4xMrfed5sseTbagmULnexmiR7AXEz6aPZryT73rKLOClh93mP04BgJyFUl8S0/SZap0IKhxyRz6j3yjHZ/6PvxdSr7yDnOkWG0xzn31WH6nI2nzLlf3fA8gxldcqCb/EMcdUBaJTBhENPQPpcXqrDqBbNMTlL2vg+//5zegCP3a+Luppn9iSv1LCX977//2z/AJExW3QrwKQ5aqj8GrE2RxAg1nC/6EOGxOG43G5smEUdGvsum0MdZ6aXdiFbvJJvWsD4xD/w5w5JcxMAaN2Zwrs7Susv8kfdRGF5yzkHkr5splA6JwVh0ixU+pTV5i3TuLMdbTyq4qUhnMCHFAISsTr/4R79MZA5uvarpkmJEehp0uN/+4gPZL//Tl2y3zLN8IAWMBNV8QvJFtsxAtLPhhg2+MzuIgGUaGaM8fyzz4MMyJ96qURXXB/Alq69ykpn0qg9t1IyJ+406lM2wuwId5lp/9Je/0N/4eKo74o5hTNC1k1woz3MxZWDCD3/0ZxTK+fJwpbjkGNFHRD+f/tyn/wD54bEDR31ploWKpCraREZ7sXTL9IkdrVrlQsAXrsHyvVMUHVSCOpmNSYySUVzurGIg+ja8RK4kAZTMCKKKeEIimpJ7nmMS/0RfWMB43hH65P2K+tcvAOsUJnxRBgxP1bfbY8KEdbKq6ZBMlIQnJVHcbrr3Fvvpj/6szV9y+fiAX3KM6COiH6ykcdDHFJ0IBPi4tEjoDRNzSvGgG041yMK7yblqIu1Xz632cCLTpJPOrFtnAwLEvF5hxMOHo/AlWq71qTPaURXCsI5pJz0AhhEbcgz9BBLVVZZimBIsadCYIKxGTggWDCL/Su0IQcDSX/7jX7lsMGHo1WUxTcQH/Oc//YQ9/cgzoV0aPG1zJuznUVAl48JE6zoFd2Jz7DyADJulZm2X8bTeee45bfcupy13wIqLEKMSwWJYt2MATWqYZCc0PyFD/EI3oumTrN0a9CE+faLD6UF3s3WNicgdAWIwL3vrj71NYfp+8lU1Bh5t1F+1pTndIBiYZXInaDrR6M46uBqggWFzRc7bGlsVnrjNd/8kzs10aUQKSqUSLNI+IWJgsrJxzGjPkKxEQZkuWXr7/AgPxMd0XZP6PI020MaIlDml+Nm75E77hMQyWxs73ZyrTaHsMNxgdZkuJftCfcivk5zwcgVC5uRVW5rTABHCWmhnguw//NHHPT4gOwL06VPHXB5H8WcefcaDO7GfC4EtMSUrryq36ctqLE8B0dm1gHnKCnh9qzUdo20HJjkmDAPlnYsvRIG0S2XYLi879il85mS7GzGcEIMSfE5wLcCuEGH1LW++zT70Gz91Sa1pQrPHekx/Y2N956LmQwPz4Nf/0z71sX+WWWKbAyIVgt1YqitmVrgP9YZbNtrr336PW1cXw8BoP0A7ftzsYK3ZM1qq0cRgxXMlJTEjiAiaRYIcbOuJ9q+ODX6hVNCLB3O1AkkdqqU7/sgf/ILdfu/r7HIPwXJZYMQ0rKCBwcsOWhAm5tDeWms8ftrOyKwL7Oj76+nL980oJeZZpkgSwYq6dL5iL7KniwrEB8b27R2Mw5iuZBKeQwc2iQ7EbI29q/cJEPHJIW5Ni9R30IEAIQHsZ86f5a4P7/nw+4y9+PA7v9y7fFk3EC3MZ//6//qeKZiPoQ6EAcnHEFRWzcRgXLdxnW26c5Nt0jYQOPuUKc50mZTGeQcPmr20Q7aQexVAXoYWqA77xVk7BxNPS3rVnoiRSJfnVcQ3hpUdbqRfiO/5reg+v0Qv7tdJq5bhwBFjS1gnkzWE054iYtiKtdUHPkFwxj/7uz/HHtqhojjj5Xu47BsqNWB28w+esi8otjSuBpiQOTBpTNmkskxm7QQ5J272Ojn7bLhpo62XxmCOfD20lbtlGhQYfe9+56yzbEoJQHqv9ZNYfWtGJ2IkAmAw3y7TFEMhAXTENVFBJM8brCz9As/FO2Iu5qKZrDZNN1lRy3BXoRfwKwkGvB2yHg92klTlBhuyFtpw/Qb74G/8pK3ftP6yX4ppdzpNxPCny7so58gbFa/PvvvF79pLz2/3TbebiZejBDJgFyw5+Lu7as0qOTxpw8U5EoLP1ebis+ZV2+L2ZsucOBG5rGL5ffJkvHE2QH2WJo95dOJC/KCXwnvQdIm8b4R6Qj5/FF20S/iMzeAJORgf7ehLDHaPYkUukqQfd0SSOs5SLEt432Pw6luutrdqo5+VV61KtFdRxsnxmzMUl3uTAchvK/DQf3zh2x7apF8UumtkwCJKiCvyJdIolrB7IQ5a1673ZXv5muUeZaJUcseC/fvkyL9Tm2Y3RPSj2zlqcjGijec4AaQxj054kVbwUnTtVAAWQDGGi7Q8yDUDZszTsit7R2Vk+SWCV50AEE6YzdJ3ShxzVOo5dpbK8Y8REMIRs4vC0jXL7O0/8Q5703vfxMc45hbT0sspTbqGD0jA6LsvKRglAIlGxqPValSZeBJLNvRjqaKQVVVX2cxZVbZoxSJbKYuemdrDeJUcqWb3aCcrxZbOHjhoduiQAobKPMotwBmSMCxxgV7qkJ/wKBEyp5/HDznwPAcQdU+YjCqwE0QbsldurvsIBiBnJjZJx02BiLgjLcFgwSppmZavXm7vVTB3LJWqZOV+KXYQTfdwos/DiE90uRe9PKLCsicduzC9tHm7hxJplVkZTE2SYiK+VL7Ks7W1xvxlCxwg2Y0K98058baw1c2nrbJHG1oqVXcJQJ2xiQwFkrI4CcCXvjkUEAOySy3JqN/axNkSNq9NQNah82aZwrAMN2oZDgCI33WXOBCQNAmrJCYII+/CGSVWLhXdgoXztdnStXarwresvnr1pMaC3sn4Z9ICYroTCMI/+bFP+lYQJ9kaV8JsopGhnUlSQJe64UxOlbDk4nkCzCXaM2a+bRRvQ1pRf8gK5Fdd0qlQzPE702KAjnKc/Te8E3Kx5ELz4aRVLy/B4KQFzYfXYPCtDvlDi2FA8vWXkdiKQASY8t9w1/X2o7/4427XGfJfKccrAhCZDOjH44frfB+RxxVGZN/u/R7qJJmoFCBC6E+XBU9piXaqkkEFJmd5EvlUd0sorjRThrc4uJNw7cQhqlI02XS8DM+SML0iPB4p7XjF9VDPQJbd3pi25XsBAJkMjnjUZRTia4E2OmcD8Pf+9Pt8gyWiqV3uIfXU/PNKVwwght4DkGxivk2bauMjgxU4EVbbW9pyNDWeP4XpMLIgAa9gzGoAUH/BPTS4hhKFAa++kY6BvgtuqAHYtDJ78sFO1RndjZbgQjkw4UVXXC5LoznVRhxH5KPYZGLZHvJeqccrvoOELiYk3oNf+U9jGw5MzRKuJp7VABsJ0tSNNGCSDeAMSz2cOef5QZQyFDpCgboPc+HWL6Hw1DNeC8/ZUxqL6Te+71678c6boi3chpZ7BV9f8YDI3BEWrkvegE2nmrRcH7O9O/bay5tfciOKptNNHrELQTnAF7EH0Yz7dYzN/E4MRAFI8UxPR4BIB7dM349Ki35LysU4iVkC6+G9eNWNV7sAet6i+c7lF8myaDKLYdJ9Hc/5awIQhw4IHDf05CFtinNMgMn+ga0CyM4O7U4g2SSehL3S62KGRji9nq7IEX1oOVxnUgxRVphymujIQgFbQeQprX1mouhi5C1RRLG5Ari1162RTeBiLKQ9yoWCYb4m54ExCek1PwBhIDgSq4d4hg0nTvveda2yg2yTBoddV0MiNB0Rv0ZLPF+2rsa39MA/++77706sy69URmO0sRjP/SlAHGG02MlTgnOP1QNGJGYP12NJ+UTuFxeO+MVVj7q+UrbWGEv/p/JMjcDUCEyNwNQITI3A1AhMjcDUCEyNwNQITI3A1AhMjcDUCEyNwNQITI3A1AhMjcDUCEyNwBU9Av8POBrmG7F8SFAAAAAASUVORK5CYII=;" vertex="1" parent="1">
          <mxGeometry x="339" y="490" width="74.39" height="90" as="geometry" />
        </mxCell>
      </root>
    </mxGraphModel>
  </diagram>
</mxfile>
